#!OML:ASF H:\GeneralSubjects\Female5\Project 1\Capture day 1\Session 1\Female5.ASF
:FULLY-SPECIFIED
:DEGREES
1
root -25.0203 15.3919 -4.9147 -98.4881 83.5469 -113.024
lowerback 13.161 -1.39676 11.0545
upperback -9.4602 1.01264 1.73957
thorax -18.5117 -0.685654 -4.48949
lowerneck -18.921 -1.23501 -0.246846
upperneck 23.9517 0.222845 -5.83624
head 10.8823 -0.548685 -2.01853
rclavicle 1.26321e-014 -4.41302e-014
rhumerus -62.883 16.1781 -87.5925
rradius 52.4822
rwrist -13.2348
rhand -30.6978 -19.4352
rfingers 7.12502
rthumb -3.99129 -49.3775
lclavicle 1.26321e-014 -4.41302e-014
lhumerus -56.6056 -18.753 98.1678
lradius 91.6313
lwrist -12.8588
lhand -33.4622 33.3768
lfingers 7.12502
lthumb -6.66042 63.252
rfemur -28.2623 9.1621 40.3777
rtibia 27.1655
rfoot -16.0067 -4.83417
rtoes -19.3679
lfemur -10.0345 6.33396 -18.5244
ltibia 62.5551
lfoot -24.0171 9.43611
ltoes -35.5462
2
root -24.3242 15.3705 -4.94995 -86.3463 82.7893 -102.14
lowerback 12.0138 -0.457177 11.5625
upperback -9.47604 2.36631 2.32914
thorax -17.5557 -0.0145553 -4.43984
lowerneck -19.1773 -1.58777 -1.08124
upperneck 23.4535 0.133679 -6.43293
head 10.7558 -0.735806 -2.10022
rclavicle 7.06617e-015 -1.13705e-013
rhumerus -59.2556 16.8149 -85.8487
rradius 55.7706
rwrist -12.3386
rhand -29.1451 -19.7195
rfingers 7.12502
rthumb -2.49188 -49.6847
lclavicle 7.06617e-015 -1.13705e-013
lhumerus -58.7593 -16.2717 97.4852
lradius 91.5087
lwrist -13.6269
lhand -34.8608 33.6456
lfingers 7.12502
lthumb -8.01044 63.4738
rfemur -26.2686 8.72112 41.7649
rtibia 26.7244
rfoot -18.1417 -2.36869
rtoes -14.7573
lfemur -17.9967 7.80686 -17.3152
ltibia 67.6319
lfoot -24.8025 8.61768
ltoes -43.0055
3
root -23.5983 15.419 -4.97686 -82.689 83.2612 -98.2559
lowerback 13.9333 -0.204906 10.9842
upperback -9.99791 2.96943 2.38507
thorax -19.444 0.21103 -4.26496
lowerneck -19.4221 -1.74502 -1.62415
upperneck 24.3052 0.337682 -6.94099
head 11.138 -0.761378 -2.18724
rclavicle 5.74301e-015 -2.42517e-014
rhumerus -57.6001 17.4985 -84.8603
rradius 59.6069
rwrist -12.0398
rhand -28.3308 -20.4535
rfingers 7.12502
rthumb -1.70542 -50.4264
lclavicle 5.74301e-015 -2.42517e-014
lhumerus -63.1859 -13.5471 96.6733
lradius 92.5899
lwrist -13.2522
lhand -32.7417 34.4378
lfingers 7.12502
lthumb -5.96487 64.3339
rfemur -22.1026 7.03237 41.4227
rtibia 25.0422
rfoot -18.8769 -0.249864
rtoes -10.1213
lfemur -23.9074 7.5049 -17.9129
ltibia 70.5964
lfoot -26.7051 4.92235
ltoes -42.0427
4
root -22.8659 15.4717 -4.99039 -83.134 84.1303 -98.5114
lowerback 14.2306 0.221987 9.20905
upperback -9.95504 3.2031 2.53935
thorax -19.5808 0.558091 -3.17719
lowerneck -19.1872 -2.07665 -2.00755
upperneck 23.9652 0.0450763 -7.23325
head 10.9618 -0.953254 -2.26012
rclavicle -5.12181e-015 2.54444e-014
rhumerus -54.9462 17.6653 -83.1111
rradius 63.9063
rwrist -13.1076
rhand -29.0607 -20.2741
rfingers 7.12502
rthumb -2.41028 -50.2402
lclavicle -5.12181e-015 2.54444e-014
lhumerus -66.2915 -11.3757 95.8672
lradius 94.2114
lwrist -11.5621
lhand -33.05 33.4084
lfingers 7.12502
lthumb -6.26249 63.2958
rfemur -18.2626 5.82327 40.4433
rtibia 23.7313
rfoot -19.9229 0.406003
rtoes -10.2382
lfemur -29.6883 5.72978 -18.8885
ltibia 70.7329
lfoot -28.1327 -1.16303
ltoes -37.6194
5
root -22.1075 15.5375 -4.99672 -85.704 84.6547 -100.56
lowerback 14.4584 0.613638 7.64177
upperback -9.76911 3.41303 2.75609
thorax -19.5148 0.884537 -2.12189
lowerneck -19.0081 -2.51099 -2.284
upperneck 23.8458 -0.444942 -7.40397
head 10.8704 -1.21515 -2.34117
rclavicle 1.45082e-014 5.56597e-015
rhumerus -52.4335 17.7947 -81.598
rradius 68.214
rwrist -13.9966
rhand -30.1152 -19.3662
rfingers 7.12502
rthumb -3.42871 -49.3184
lclavicle 1.45082e-014 5.56597e-015
lhumerus -69.1468 -9.76895 95.2349
lradius 95.2551
lwrist -10.409
lhand -33.5878 33.1436
lfingers 7.12502
lthumb -6.78166 63.015
rfemur -14.0235 5.76917 39.8565
rtibia 22.5785
rfoot -20.8342 -0.0491531
rtoes -10.6692
lfemur -34.5245 3.6762 -19.2876
ltibia 69.9955
lfoot -27.4836 -8.99927
ltoes -30.6311
6
root -21.3265 15.6163 -4.98816 -92.0003 85.0469 -106.45
lowerback 14.2395 0.968159 5.99299
upperback -9.62783 3.52098 2.99936
thorax -19.2469 1.18733 -0.946135
lowerneck -18.7414 -2.97158 -2.75902
upperneck 23.9557 -0.999907 -7.19725
head 10.849 -1.48061 -2.26481
rclavicle 7.82093e-015 -4.29375e-014
rhumerus -50.3487 17.9066 -80.1387
rradius 72.2594
rwrist -14.6729
rhand -31.7812 -20.6611
rfingers 7.12502
rthumb -5.03744 -50.5812
lclavicle 7.82093e-015 -4.29375e-014
lhumerus -71.6589 -8.72269 94.7919
lradius 95.5775
lwrist -8.89016
lhand -35.1388 31.4884
lfingers 7.12502
lthumb -8.27874 61.3062
rfemur -9.45209 6.69591 39.618
rtibia 20.7429
rfoot -21.1287 -1.29642
rtoes -12.3828
lfemur -38.7608 1.07336 -19.2634
ltibia 67.7045
lfoot -25.5389 -15.6516
ltoes -26.6055
7
root -20.5143 15.7095 -4.97731 -102.317 85.0664 -116.408
lowerback 13.622 1.19809 4.72508
upperback -9.50899 3.53275 3.25006
thorax -18.7491 1.4016 0.0652089
lowerneck -18.3391 -3.47459 -3.40645
upperneck 24.1807 -1.59116 -6.87029
head 10.8521 -1.76215 -2.12096
rclavicle -2.36057e-015 -1.03368e-014
rhumerus -48.7974 18.0621 -78.7405
rradius 75.9118
rwrist -14.3983
rhand -32.2595 -19.4401
rfingers 7.12502
rthumb -5.49932 -49.3488
lclavicle -2.36057e-015 -1.03368e-014
lhumerus -73.9218 -8.09446 94.2596
lradius 95.9797
lwrist -8.51317
lhand -35.8475 33.4916
lfingers 7.12502
lthumb -8.96263 63.2813
rfemur -4.27959 8.12413 39.9167
rtibia 17.6606
rfoot -20.2218 -3.2155
rtoes -13.7811
lfemur -42.1979 -1.66633 -18.9795
ltibia 63.09
lfoot -22.75 -20.8571
ltoes -26.4113
